<svg width="200" height="200" viewBox="0 0 200 200" xmlns="http://www.w3.org/2000/svg">
    <defs/>
    <path fill="#000000" stroke="none" d="M 0 0 L 200 0 L 200 200 L 0 200 Z"/>
    <path fill="none" stroke="#d2b48c" d="M 100 100 L 103.42187 90.60156"/>
    <path fill="none" stroke="#d2b48c" d="M 103.42187 90.60156 L 94.02344 87.17969"/>
    <path fill="none" stroke="#d2b48c" d="M 94.02344 87.17969 L 90.60156 96.57813"/>
    <path fill="none" stroke="#d2b48c" d="M 90.60156 96.57813 L 100 100"/>
    <path fill="none" stroke="#ff0000" d="M 100 100 L 106.42969 92.33984"/>
    <path fill="none" stroke="#ff0000" d="M 106.42969 92.33984 L 98.76953 85.91016"/>
    <path fill="none" stroke="#ff0000" d="M 98.76953 85.91016 L 92.33984 93.57031"/>
    <path fill="none" stroke="#ff0000" d="M 92.33984 93.57031 L 100 100"/>
    <path fill="none" stroke="#ffff00" d="M 100 100 L 108.66015 95"/>
    <path fill="none" stroke="#ffff00" d="M 108.66015 95 L 103.66016 86.33984"/>
    <path fill="none" stroke="#ffff00" d="M 103.66016 86.33984 L 95 91.33985"/>
    <path fill="none" stroke="#ffff00" d="M 95 91.33985 L 100 100"/>
    <path fill="none" stroke="#a52a2a" d="M 100 100 L 109.84766 98.26172"/>
    <path fill="none" stroke="#a52a2a" d="M 109.84766 98.26172 L 108.109375 88.41406"/>
    <path fill="none" stroke="#a52a2a" d="M 108.109375 88.41406 L 98.26172 90.15234"/>
    <path fill="none" stroke="#a52a2a" d="M 98.26172 90.15234 L 100 100"/>
    <path fill="none" stroke="#228b22" d="M 100 100 L 109.84766 101.73828"/>
    <path fill="none" stroke="#228b22" d="M 109.84766 101.73828 L 111.58594 91.890625"/>
    <path fill="none" stroke="#228b22" d="M 111.58594 91.890625 L 101.73828 90.15234"/>
    <path fill="none" stroke="#228b22" d="M 101.73828 90.15234 L 100 100"/>
    <path fill="none" stroke="#ff0000" d="M 100 100 L 108.66015 105"/>
    <path fill="none" stroke="#ff0000" d="M 108.66015 105 L 113.66016 96.33984"/>
    <path fill="none" stroke="#ff0000" d="M 113.66016 96.33984 L 105 91.33985"/>
    <path fill="none" stroke="#ff0000" d="M 105 91.33985 L 100 100"/>
    <path fill="none" stroke="#ffff00" d="M 100 100 L 106.42969 107.66016"/>
    <path fill="none" stroke="#ffff00" d="M 106.42969 107.66016 L 114.08984 101.23047"/>
    <path fill="none" stroke="#ffff00" d="M 114.08984 101.23047 L 107.66016 93.57031"/>
    <path fill="none" stroke="#ffff00" d="M 107.66016 93.57031 L 100 100"/>
    <path fill="none" stroke="#a52a2a" d="M 100 100 L 103.42187 109.39844"/>
    <path fill="none" stroke="#a52a2a" d="M 103.42187 109.39844 L 112.82031 105.97656"/>
    <path fill="none" stroke="#a52a2a" d="M 112.82031 105.97656 L 109.39844 96.57813"/>
    <path fill="none" stroke="#a52a2a" d="M 109.39844 96.57813 L 100 100"/>
    <path fill="none" stroke="#228b22" d="M 100 100 L 100 110"/>
    <path fill="none" stroke="#228b22" d="M 100 110 L 110 110"/>
    <path fill="none" stroke="#228b22" d="M 110 110 L 110 100"/>
    <path fill="none" stroke="#228b22" d="M 110 100 L 100 100"/>
    <path fill="none" stroke="#ff0000" d="M 100 100 L 96.57813 109.39844"/>
    <path fill="none" stroke="#ff0000" d="M 96.57813 109.39844 L 105.97656 112.82031"/>
    <path fill="none" stroke="#ff0000" d="M 105.97656 112.82031 L 109.39844 103.42187"/>
    <path fill="none" stroke="#ff0000" d="M 109.39844 103.42187 L 100 100"/>
    <path fill="none" stroke="#ffff00" d="M 100 100 L 93.57031 107.66016"/>
    <path fill="none" stroke="#ffff00" d="M 93.57031 107.66016 L 101.23047 114.08984"/>
    <path fill="none" stroke="#ffff00" d="M 101.23047 114.08984 L 107.66016 106.42969"/>
    <path fill="none" stroke="#ffff00" d="M 107.66016 106.42969 L 100 100"/>
    <path fill="none" stroke="#a52a2a" d="M 100 100 L 91.33985 105"/>
    <path fill="none" stroke="#a52a2a" d="M 91.33985 105 L 96.33984 113.66016"/>
    <path fill="none" stroke="#a52a2a" d="M 96.33984 113.66016 L 105 108.66015"/>
    <path fill="none" stroke="#a52a2a" d="M 105 108.66015 L 100 100"/>
    <path fill="none" stroke="#228b22" d="M 100 100 L 90.15234 101.73828"/>
    <path fill="none" stroke="#228b22" d="M 90.15234 101.73828 L 91.890625 111.58594"/>
    <path fill="none" stroke="#228b22" d="M 91.890625 111.58594 L 101.73828 109.84766"/>
    <path fill="none" stroke="#228b22" d="M 101.73828 109.84766 L 100 100"/>
    <path fill="none" stroke="#ff0000" d="M 100 100 L 90.15234 98.26172"/>
    <path fill="none" stroke="#ff0000" d="M 90.15234 98.26172 L 88.41406 108.109375"/>
    <path fill="none" stroke="#ff0000" d="M 88.41406 108.109375 L 98.26172 109.84766"/>
    <path fill="none" stroke="#ff0000" d="M 98.26172 109.84766 L 100 100"/>
    <path fill="none" stroke="#ffff00" d="M 100 100 L 91.33985 95"/>
    <path fill="none" stroke="#ffff00" d="M 91.33985 95 L 86.33984 103.66016"/>
    <path fill="none" stroke="#ffff00" d="M 86.33984 103.66016 L 95 108.66015"/>
    <path fill="none" stroke="#ffff00" d="M 95 108.66015 L 100 100"/>
    <path fill="none" stroke="#a52a2a" d="M 100 100 L 93.57031 92.33984"/>
    <path fill="none" stroke="#a52a2a" d="M 93.57031 92.33984 L 85.91016 98.76953"/>
    <path fill="none" stroke="#a52a2a" d="M 85.91016 98.76953 L 92.33984 106.42969"/>
    <path fill="none" stroke="#a52a2a" d="M 92.33984 106.42969 L 100 100"/>
    <path fill="none" stroke="#228b22" d="M 100 100 L 96.57813 90.60156"/>
    <path fill="none" stroke="#228b22" d="M 96.57813 90.60156 L 87.17969 94.02344"/>
    <path fill="none" stroke="#228b22" d="M 87.17969 94.02344 L 90.60156 103.42187"/>
    <path fill="none" stroke="#228b22" d="M 90.60156 103.42187 L 100 100"/>
    <path fill="none" stroke="#ff0000" d="M 100 100 L 100 90"/>
    <path fill="none" stroke="#ff0000" d="M 100 90 L 90 90"/>
    <path fill="none" stroke="#ff0000" d="M 90 90 L 90 100"/>
    <path fill="none" stroke="#ff0000" d="M 90 100 L 100 100"/>
    <path fill="none" stroke="#ffff00" d="M 100 100 L 103.42187 90.60156"/>
    <path fill="none" stroke="#ffff00" d="M 103.42187 90.60156 L 94.02344 87.17969"/>
    <path fill="none" stroke="#ffff00" d="M 94.02344 87.17969 L 90.60156 96.57813"/>
    <path fill="none" stroke="#ffff00" d="M 90.60156 96.57813 L 100 100"/>
    <path fill="none" stroke="#a52a2a" d="M 100 100 L 106.42969 92.33984"/>
    <path fill="none" stroke="#a52a2a" d="M 106.42969 92.33984 L 98.76953 85.91016"/>
    <path fill="none" stroke="#a52a2a" d="M 98.76953 85.91016 L 92.33984 93.57031"/>
    <path fill="none" stroke="#a52a2a" d="M 92.33984 93.57031 L 100 100"/>
    <path fill="none" stroke="#228b22" d="M 100 100 L 108.66015 95"/>
    <path fill="none" stroke="#228b22" d="M 108.66015 95 L 103.66016 86.33984"/>
    <path fill="none" stroke="#228b22" d="M 103.66016 86.33984 L 95 91.33985"/>
    <path fill="none" stroke="#228b22" d="M 95 91.33985 L 100 100"/>
    <path fill="none" stroke="#ff0000" d="M 100 100 L 109.84766 98.26172"/>
    <path fill="none" stroke="#ff0000" d="M 109.84766 98.26172 L 108.109375 88.41406"/>
    <path fill="none" stroke="#ff0000" d="M 108.109375 88.41406 L 98.26172 90.15234"/>
    <path fill="none" stroke="#ff0000" d="M 98.26172 90.15234 L 100 100"/>
    <path fill="none" stroke="#ffff00" d="M 100 100 L 109.84766 101.73828"/>
    <path fill="none" stroke="#ffff00" d="M 109.84766 101.73828 L 111.58594 91.890625"/>
    <path fill="none" stroke="#ffff00" d="M 111.58594 91.890625 L 101.73828 90.15234"/>
    <path fill="none" stroke="#ffff00" d="M 101.73828 90.15234 L 100 100"/>
    <path fill="none" stroke="#a52a2a" d="M 100 100 L 108.66015 105"/>
    <path fill="none" stroke="#a52a2a" d="M 108.66015 105 L 113.66016 96.33984"/>
    <path fill="none" stroke="#a52a2a" d="M 113.66016 96.33984 L 105 91.33985"/>
    <path fill="none" stroke="#a52a2a" d="M 105 91.33985 L 100 100"/>
    <path fill="none" stroke="#228b22" d="M 100 100 L 106.42969 107.66016"/>
    <path fill="none" stroke="#228b22" d="M 106.42969 107.66016 L 114.08984 101.23047"/>
    <path fill="none" stroke="#228b22" d="M 114.08984 101.23047 L 107.66016 93.57031"/>
    <path fill="none" stroke="#228b22" d="M 107.66016 93.57031 L 100 100"/>
    <path fill="none" stroke="#ff0000" d="M 100 100 L 103.42187 109.39844"/>
    <path fill="none" stroke="#ff0000" d="M 103.42187 109.39844 L 112.82031 105.97656"/>
    <path fill="none" stroke="#ff0000" d="M 112.82031 105.97656 L 109.39844 96.57813"/>
    <path fill="none" stroke="#ff0000" d="M 109.39844 96.57813 L 100 100"/>
    <path fill="none" stroke="#ffff00" d="M 100 100 L 100 110"/>
    <path fill="none" stroke="#ffff00" d="M 100 110 L 110 110"/>
    <path fill="none" stroke="#ffff00" d="M 110 110 L 110 100"/>
    <path fill="none" stroke="#ffff00" d="M 110 100 L 100 100"/>
    <path fill="none" stroke="#a52a2a" d="M 100 100 L 96.57813 109.39844"/>
    <path fill="none" stroke="#a52a2a" d="M 96.57813 109.39844 L 105.97656 112.82031"/>
    <path fill="none" stroke="#a52a2a" d="M 105.97656 112.82031 L 109.39844 103.42187"/>
    <path fill="none" stroke="#a52a2a" d="M 109.39844 103.42187 L 100 100"/>
    <path fill="none" stroke="#228b22" d="M 100 100 L 93.57031 107.66016"/>
    <path fill="none" stroke="#228b22" d="M 93.57031 107.66016 L 101.23047 114.08984"/>
    <path fill="none" stroke="#228b22" d="M 101.23047 114.08984 L 107.66016 106.42969"/>
    <path fill="none" stroke="#228b22" d="M 107.66016 106.42969 L 100 100"/>
</svg>
