<svg width="200" height="200" viewBox="0 0 200 200" xmlns="http://www.w3.org/2000/svg">
    <defs/>
    <path fill="#000000" stroke="none" d="M 0 0 L 200 0 L 200 200 L 0 200 Z"/>
    <path fill="none" stroke="#d2b48c" d="M 100 100 L 100.68359 98.12109"/>
    <path fill="none" stroke="#d2b48c" d="M 100.68359 98.12109 L 98.80469 97.4375"/>
    <path fill="none" stroke="#d2b48c" d="M 98.80469 97.4375 L 98.12109 99.31641"/>
    <path fill="none" stroke="#d2b48c" d="M 98.12109 99.31641 L 100 100"/>
    <path fill="none" stroke="#ff0000" d="M 100 100 L 102.57031 96.9375"/>
    <path fill="none" stroke="#ff0000" d="M 102.57031 96.9375 L 99.50781 94.36719"/>
    <path fill="none" stroke="#ff0000" d="M 99.50781 94.36719 L 96.9375 97.42969"/>
    <path fill="none" stroke="#ff0000" d="M 96.9375 97.42969 L 100 100"/>
    <path fill="none" stroke="#ffff00" d="M 100 100 L 105.19531 97"/>
    <path fill="none" stroke="#ffff00" d="M 105.19531 97 L 102.19531 91.804695"/>
    <path fill="none" stroke="#ffff00" d="M 102.19531 91.804695 L 97 94.80469"/>
    <path fill="none" stroke="#ffff00" d="M 97 94.80469 L 100 100"/>
    <path fill="none" stroke="#a52a2a" d="M 100 100 L 107.8789 98.609375"/>
    <path fill="none" stroke="#a52a2a" d="M 107.8789 98.609375 L 106.48828 90.73047"/>
    <path fill="none" stroke="#a52a2a" d="M 106.48828 90.73047 L 98.609375 92.1211"/>
    <path fill="none" stroke="#a52a2a" d="M 98.609375 92.1211 L 100 100"/>
    <path fill="none" stroke="#228b22" d="M 100 100 L 109.84766 101.73828"/>
    <path fill="none" stroke="#228b22" d="M 109.84766 101.73828 L 111.58594 91.890625"/>
    <path fill="none" stroke="#228b22" d="M 111.58594 91.890625 L 101.73828 90.15234"/>
    <path fill="none" stroke="#228b22" d="M 101.73828 90.15234 L 100 100"/>
    <path fill="none" stroke="#ff0000" d="M 100 100 L 110.39062 106"/>
    <path fill="none" stroke="#ff0000" d="M 110.39062 106 L 116.390625 95.609375"/>
    <path fill="none" stroke="#ff0000" d="M 116.390625 95.609375 L 106 89.60938"/>
    <path fill="none" stroke="#ff0000" d="M 106 89.60938 L 100 100"/>
    <path fill="none" stroke="#ffff00" d="M 100 100 L 109 110.72656"/>
    <path fill="none" stroke="#ffff00" d="M 109 110.72656 L 119.72656 101.72657"/>
    <path fill="none" stroke="#ffff00" d="M 119.72656 101.72657 L 110.72656 91"/>
    <path fill="none" stroke="#ffff00" d="M 110.72656 91 L 100 100"/>
    <path fill="none" stroke="#a52a2a" d="M 100 100 L 105.47266 115.03516"/>
    <path fill="none" stroke="#a52a2a" d="M 105.47266 115.03516 L 120.50781 109.5625"/>
    <path fill="none" stroke="#a52a2a" d="M 120.50781 109.5625 L 115.03516 94.52734"/>
    <path fill="none" stroke="#a52a2a" d="M 115.03516 94.52734 L 100 100"/>
    <path fill="none" stroke="#228b22" d="M 100 100 L 100 118"/>
    <path fill="none" stroke="#228b22" d="M 100 118 L 118 118"/>
    <path fill="none" stroke="#228b22" d="M 118 118 L 118 100"/>
    <path fill="none" stroke="#228b22" d="M 118 100 L 100 100"/>
    <path fill="none" stroke="#ff0000" d="M 100 100 L 93.160164 118.79297"/>
    <path fill="none" stroke="#ff0000" d="M 93.160164 118.79297 L 111.953125 125.63281"/>
    <path fill="none" stroke="#ff0000" d="M 111.953125 125.63281 L 118.79297 106.839836"/>
    <path fill="none" stroke="#ff0000" d="M 118.79297 106.839836 L 100 100"/>
    <path fill="none" stroke="#ffff00" d="M 100 100 L 85.859375 116.851555"/>
    <path fill="none" stroke="#ffff00" d="M 85.859375 116.851555 L 102.71094 130.99219"/>
    <path fill="none" stroke="#ffff00" d="M 102.71094 130.99219 L 116.851555 114.14062"/>
    <path fill="none" stroke="#ffff00" d="M 116.851555 114.14062 L 100 100"/>
    <path fill="none" stroke="#a52a2a" d="M 100 100 L 79.21484 112"/>
    <path fill="none" stroke="#a52a2a" d="M 79.21484 112 L 91.21485 132.78516"/>
    <path fill="none" stroke="#a52a2a" d="M 91.21485 132.78516 L 112 120.78515"/>
    <path fill="none" stroke="#a52a2a" d="M 112 120.78515 L 100 100"/>
    <path fill="none" stroke="#228b22" d="M 100 100 L 74.39453 104.515625"/>
    <path fill="none" stroke="#228b22" d="M 74.39453 104.515625 L 78.91016 130.1211"/>
    <path fill="none" stroke="#228b22" d="M 78.91016 130.1211 L 104.515625 125.60547"/>
    <path fill="none" stroke="#228b22" d="M 104.515625 125.60547 L 100 100"/>
    <path fill="none" stroke="#ff0000" d="M 100 100 L 72.42578 95.13672"/>
    <path fill="none" stroke="#ff0000" d="M 72.42578 95.13672 L 67.5625 122.71094"/>
    <path fill="none" stroke="#ff0000" d="M 67.5625 122.71094 L 95.13672 127.57422"/>
    <path fill="none" stroke="#ff0000" d="M 95.13672 127.57422 L 100 100"/>
    <path fill="none" stroke="#ffff00" d="M 100 100 L 74.01953 85"/>
    <path fill="none" stroke="#ffff00" d="M 74.01953 85 L 59.01953 110.98046"/>
    <path fill="none" stroke="#ffff00" d="M 59.01953 110.98046 L 85 125.98047"/>
    <path fill="none" stroke="#ffff00" d="M 85 125.98047 L 100 100"/>
    <path fill="none" stroke="#a52a2a" d="M 100 100 L 79.42969 75.48828"/>
    <path fill="none" stroke="#a52a2a" d="M 79.42969 75.48828 L 54.91797 96.05859"/>
    <path fill="none" stroke="#a52a2a" d="M 54.91797 96.05859 L 75.48828 120.57032"/>
    <path fill="none" stroke="#a52a2a" d="M 75.48828 120.57032 L 100 100"/>
    <path fill="none" stroke="#228b22" d="M 100 100 L 88.3711 68.05078"/>
    <path fill="none" stroke="#228b22" d="M 88.3711 68.05078 L 56.42187 79.67969"/>
    <path fill="none" stroke="#228b22" d="M 56.42187 79.67969 L 68.05078 111.6289"/>
    <path fill="none" stroke="#228b22" d="M 68.05078 111.6289 L 100 100"/>
    <path fill="none" stroke="#ff0000" d="M 100 100 L 100 64"/>
    <path fill="none" stroke="#ff0000" d="M 100 64 L 64 64"/>
    <path fill="none" stroke="#ff0000" d="M 64 64 L 64 100"/>
    <path fill="none" stroke="#ff0000" d="M 64 100 L 100 100"/>
    <path fill="none" stroke="#ffff00" d="M 100 100 L 112.99609 64.29297"/>
    <path fill="none" stroke="#ffff00" d="M 112.99609 64.29297 L 77.28906 51.296875"/>
    <path fill="none" stroke="#ffff00" d="M 77.28906 51.296875 L 64.29297 87.00391"/>
    <path fill="none" stroke="#ffff00" d="M 64.29297 87.00391 L 100 100"/>
    <path fill="none" stroke="#a52a2a" d="M 100 100 L 125.71094 69.359375"/>
    <path fill="none" stroke="#a52a2a" d="M 125.71094 69.359375 L 95.07031 43.648434"/>
    <path fill="none" stroke="#a52a2a" d="M 95.07031 43.648434 L 69.359375 74.28906"/>
    <path fill="none" stroke="#a52a2a" d="M 69.359375 74.28906 L 100 100"/>
    <path fill="none" stroke="#228b22" d="M 100 100 L 136.375 79"/>
    <path fill="none" stroke="#228b22" d="M 136.375 79 L 115.375 42.625"/>
    <path fill="none" stroke="#228b22" d="M 115.375 42.625 L 79 63.625"/>
    <path fill="none" stroke="#228b22" d="M 79 63.625 L 100 100"/>
    <path fill="none" stroke="#ff0000" d="M 100 100 L 143.33203 92.359375"/>
    <path fill="none" stroke="#ff0000" d="M 143.33203 92.359375 L 135.6914 49.027344"/>
    <path fill="none" stroke="#ff0000" d="M 135.6914 49.027344 L 92.359375 56.66797"/>
    <path fill="none" stroke="#ff0000" d="M 92.359375 56.66797 L 100 100"/>
    <path fill="none" stroke="#ffff00" d="M 100 100 L 145.30078 107.98829"/>
    <path fill="none" stroke="#ffff00" d="M 145.30078 107.98829 L 153.28906 62.6875"/>
    <path fill="none" stroke="#ffff00" d="M 153.28906 62.6875 L 107.98829 54.69922"/>
    <path fill="none" stroke="#ffff00" d="M 107.98829 54.69922 L 100 100"/>
    <path fill="none" stroke="#a52a2a" d="M 100 100 L 141.57031 124"/>
    <path fill="none" stroke="#a52a2a" d="M 141.57031 124 L 165.57031 82.42969"/>
    <path fill="none" stroke="#a52a2a" d="M 165.57031 82.42969 L 124 58.429688"/>
    <path fill="none" stroke="#a52a2a" d="M 124 58.429688 L 100 100"/>
    <path fill="none" stroke="#228b22" d="M 100 100 L 132.14063 138.30078"/>
    <path fill="none" stroke="#228b22" d="M 132.14063 138.30078 L 170.4414 106.16016"/>
    <path fill="none" stroke="#228b22" d="M 170.4414 106.16016 L 138.30078 67.859375"/>
    <path fill="none" stroke="#228b22" d="M 138.30078 67.859375 L 100 100"/>
    <path fill="none" stroke="#ff0000" d="M 100 100 L 117.78516 148.86328"/>
    <path fill="none" stroke="#ff0000" d="M 117.78516 148.86328 L 166.64844 131.07813"/>
    <path fill="none" stroke="#ff0000" d="M 166.64844 131.07813 L 148.86328 82.21484"/>
    <path fill="none" stroke="#ff0000" d="M 148.86328 82.21484 L 100 100"/>
    <path fill="none" stroke="#ffff00" d="M 100 100 L 100 154"/>
    <path fill="none" stroke="#ffff00" d="M 100 154 L 154 154"/>
    <path fill="none" stroke="#ffff00" d="M 154 154 L 154 100"/>
    <path fill="none" stroke="#ffff00" d="M 154 100 L 100 100"/>
    <path fill="none" stroke="#a52a2a" d="M 100 100 L 80.84766 152.6211"/>
    <path fill="none" stroke="#a52a2a" d="M 80.84766 152.6211 L 133.46875 171.77344"/>
    <path fill="none" stroke="#a52a2a" d="M 133.46875 171.77344 L 152.6211 119.15234"/>
    <path fill="none" stroke="#a52a2a" d="M 152.6211 119.15234 L 100 100"/>
    <path fill="none" stroke="#228b22" d="M 100 100 L 62.71875 144.42969"/>
    <path fill="none" stroke="#228b22" d="M 62.71875 144.42969 L 107.148445 181.71094"/>
    <path fill="none" stroke="#228b22" d="M 107.148445 181.71094 L 144.42969 137.28125"/>
    <path fill="none" stroke="#228b22" d="M 144.42969 137.28125 L 100 100"/>
</svg>
